HIERARCHY
ROOT Hips
{
	OFFSET 0.000000 0.000000 0.000000
	CHANNELS 6 Xposition Yposition Zposition Xrotation Yrotation Zrotation
	JOINT LeftUpLeg_virtual
	{
		OFFSET 0.000000 0.000000 0.000000
		CHANNELS 3 Xrotation Yrotation Zrotation
		JOINT LeftUpLeg
		{
			OFFSET 10.205400 -3.823500 0.155100
			CHANNELS 3 Xrotation Yrotation Zrotation
			JOINT LeftLeg
			{
				OFFSET 0.708757 -12.982077 0.567790
				CHANNELS 3 Xrotation Yrotation Zrotation
				JOINT LeftFoot
				{
					OFFSET -0.708756 -10.717838 -2.184338
					CHANNELS 3 Xrotation Yrotation Zrotation
					JOINT LeftToeBase
					{
						OFFSET 0.108149 -7.191104 7.560241
						CHANNELS 3 Xrotation Yrotation Zrotation
						JOINT LeftToe_End
						{
							OFFSET 0.070230 0.081724 4.490308
							CHANNELS 3 Xrotation Yrotation Zrotation
							End Site
							{
								OFFSET 0 0 0
							}
						}
					}
				}
			}
		}
	}
	JOINT RightUpLeg_virtual
	{
		OFFSET 0.000000 0.000000 0.000000
		CHANNELS 3 Xrotation Yrotation Zrotation
		JOINT RightUpLeg
		{
			OFFSET -10.205400 -3.823500 0.005500
			CHANNELS 3 Xrotation Yrotation Zrotation
			JOINT RightLeg
			{
				OFFSET -0.708756 -12.982134 0.610632
				CHANNELS 3 Xrotation Yrotation Zrotation
				JOINT RightFoot
				{
					OFFSET 0.708754 -10.717769 -1.945823
					CHANNELS 3 Xrotation Yrotation Zrotation
					JOINT RightToeBase
					{
						OFFSET -0.108140 -7.191069 7.372968
						CHANNELS 3 Xrotation Yrotation Zrotation
						JOINT RightToe_End
						{
							OFFSET -0.070227 0.081735 4.479403
							CHANNELS 3 Xrotation Yrotation Zrotation
							End Site
							{
								OFFSET 0 0 0
							}
						}
					}
				}
			}
		}
	}
	JOINT Spine_virtual
	{
		OFFSET 0.000000 0.000000 0.000000
		CHANNELS 3 Xrotation Yrotation Zrotation
		JOINT Spine
		{
			OFFSET 0.000000 6.876099 0.125700
			CHANNELS 3 Xrotation Yrotation Zrotation
			JOINT Spine1
			{
				OFFSET 0.000000 5.730043 0.104720
				CHANNELS 3 Xrotation Yrotation Zrotation
				JOINT Spine1_split
				{
					OFFSET 0.000000 5.730043 0.104720
					CHANNELS 3 Xrotation Yrotation Zrotation
					JOINT Spine2
					{
						OFFSET 0.000000 5.730043 0.104720
						CHANNELS 3 Xrotation Yrotation Zrotation
						JOINT Neck_virtual
						{
							OFFSET 0.000000 0.000000 0.000000
							CHANNELS 3 Xrotation Yrotation Zrotation
							JOINT Neck
							{
								OFFSET 0.000000 10.314075 0.188496
								CHANNELS 3 Xrotation Yrotation Zrotation
								JOINT Head
								{
									OFFSET 0.000000 7.643700 -2.377400
									CHANNELS 3 Xrotation Yrotation Zrotation
									JOINT HeadTop_End
									{
										OFFSET 0.000000 43.788605 -13.619600
										CHANNELS 3 Xrotation Yrotation Zrotation
										End Site
										{
											OFFSET 0 0 0
										}
									}
								}
							}
						}
						JOINT LeftShoulder_virtual
						{
							OFFSET 0.000000 0.000000 0.000000
							CHANNELS 3 Xrotation Yrotation Zrotation
							JOINT LeftShoulder
							{
								OFFSET 2.196100 4.412489 0.087492
								CHANNELS 3 Xrotation Yrotation Zrotation
								JOINT LeftShoulder_split
								{
									OFFSET 2.196100 4.412489 0.087492
									CHANNELS 3 Xrotation Yrotation Zrotation
									JOINT LeftArm
									{
										OFFSET 8.771219 -2.981674 -0.026999
										CHANNELS 3 Xrotation Yrotation Zrotation
										JOINT LeftForeArm
										{
											OFFSET 8.512804 0.000000 -0.000000
											CHANNELS 3 Xrotation Yrotation Zrotation
											JOINT LeftHand
											{
												OFFSET 18.484802 0.000000 -0.000000
												CHANNELS 3 Xrotation Yrotation Zrotation
												End Site
												{
													OFFSET 0 0 0
												}
											}
										}
									}
								}
							}
						}
						JOINT RightShoulder_virtual
						{
							OFFSET 0.000000 0.000000 0.000000
							CHANNELS 3 Xrotation Yrotation Zrotation
							JOINT RightShoulder
							{
								OFFSET -2.196100 4.412496 0.070690
								CHANNELS 3 Xrotation Yrotation Zrotation
								JOINT RightShoulder_split
								{
									OFFSET -2.196100 4.412496 0.070690
									CHANNELS 3 Xrotation Yrotation Zrotation
									JOINT RightArm
									{
										OFFSET -8.771282 -2.981682 -0.094208
										CHANNELS 3 Xrotation Yrotation Zrotation
										JOINT RightForeArm
										{
											OFFSET -8.494598 0.000000 0.000000
											CHANNELS 3 Xrotation Yrotation Zrotation
											JOINT RightHand
											{
												OFFSET -18.483803 0.000000 0.000001
												CHANNELS 3 Xrotation Yrotation Zrotation
												End Site
												{
													OFFSET 0 0 0
												}
											}
										}
									}
								}
							}
						}
					}
				}
			}
		}
	}
}
MOTION
Frames: 4
Frame Time: 0.03333333
-0.316853 32.904938 -0.026423 0.000000 0.000000 0.000000 -1.939490 -0.006683 -0.299729 -6.850659 4.053676 10.770621 24.776298 3.862293 2.066243 -18.854915 4.368358 -15.874902 2.425496 0.535389 -1.427334 0.000000 0.000000 0.000000 -1.707747 0.599912 -0.274872 -2.925196 1.663511 -4.271213 21.163015 0.848065 -2.198061 -17.000928 -1.557162 7.662718 3.465533 -0.552735 -0.268291 0.000000 0.000000 0.000000 -1.872450 -1.317606 -0.559038 0.868394 -0.954151 0.156197 -1.121528 -0.261098 0.583555 1.034819 0.161054 0.010512 0.000000 0.000000 0.000000 -1.551674 -0.000795 0.579589 -0.524339 0.624467 -1.109688 4.325321 -1.891298 1.985794 0.000000 0.000000 0.000000 -1.631110 0.163262 0.281444 1.409153 -10.819423 -10.396737 -2.761129 0.344032 -1.749217 20.727857 -21.577193 -65.609752 -1.097668 -19.795664 0.891226 0.000000 0.000000 0.000000 -1.133486 0.162654 0.540772 1.618955 5.413866 10.796813 -0.502439 3.086412 -1.965337 5.995829 23.579531 66.564278 0.593916 16.158073 0.654798 0.000000 0.000000 0.000000 
-0.226003 32.953674 -0.036774 0.000000 0.000000 0.000000 -1.910485 -0.024511 -0.297185 -6.748581 3.818544 10.766980 24.691849 4.024290 2.050425 -18.669709 4.480753 -15.607858 2.275052 0.569652 -1.456575 0.000000 0.000000 0.000000 -1.676852 0.511909 -0.287747 -2.554446 1.557482 -4.317714 20.815476 0.797534 -2.302337 -16.753532 -1.560072 7.226651 3.086469 -0.627365 -0.108250 0.000000 0.000000 0.000000 -1.750020 -1.413662 -0.628443 0.730410 -0.919569 0.209037 -1.082037 -0.260179 0.586087 1.115735 0.309611 0.088774 0.000000 0.000000 0.000000 -1.563144 -0.014296 0.592390 -0.568012 0.678565 -1.082257 4.257739 -1.947322 1.908515 0.000000 0.000000 0.000000 -1.623879 0.174525 0.284910 1.411619 -10.880148 -10.507432 -2.740338 0.368677 -1.747117 20.696516 -21.678139 -65.661491 -1.091675 -19.837953 0.781804 0.000000 0.000000 0.000000 -1.110468 0.165668 0.535911 1.634979 5.575039 10.850695 -0.420565 3.216570 -2.001468 6.148847 23.701605 66.381324 0.650011 16.061603 0.661315 0.000000 0.000000 0.000000 
-0.146767 32.999771 -0.046917 0.000000 0.000000 0.000000 -1.984223 -0.146162 -0.336147 -6.719095 3.742418 10.765663 24.613558 4.353560 2.084932 -18.402536 4.467190 -15.198909 2.130613 0.626642 -1.413459 0.000000 0.000000 0.000000 -1.645898 0.437859 -0.371126 -2.127347 1.490956 -4.291591 20.540684 0.756725 -2.486351 -17.145231 -1.514877 6.548147 2.906477 -0.619545 -0.099982 0.000000 0.000000 0.000000 -1.597958 -1.555412 -0.737125 0.669304 -0.848212 0.327511 -1.003844 -0.250509 0.565415 1.165785 0.331845 0.085027 0.000000 0.000000 0.000000 -1.540603 -0.027110 0.578734 -0.586879 0.787736 -1.112398 4.009081 -2.002273 1.915055 0.000000 0.000000 0.000000 -1.580641 0.180743 0.261509 1.408890 -10.985844 -10.623553 -2.764812 0.600807 -1.713516 20.580673 -21.688226 -65.722689 -1.054224 -20.006198 0.668472 0.000000 0.000000 0.000000 -1.057750 0.159298 0.500119 1.682932 5.740523 10.878408 -0.278893 3.349247 -2.043154 6.425559 24.008011 65.963624 0.729065 16.161554 0.642942 0.000000 0.000000 0.000000 
-0.079065 33.010563 -0.070564 0.000000 0.000000 0.000000 -2.083928 -0.388494 -0.407700 -6.759812 3.871348 10.708290 24.588599 4.834016 2.170090 -18.219864 4.373239 -14.738889 2.026003 0.698539 -1.293142 0.000000 0.000000 0.000000 -1.565676 0.351832 -0.468754 -1.930707 1.433533 -4.262987 20.530514 0.727212 -2.623301 -17.809945 -1.452329 5.842486 2.796388 -0.574516 -0.239798 0.000000 0.000000 0.000000 -1.434254 -1.755384 -0.837012 0.692309 -0.764231 0.470975 -0.883557 -0.224942 0.527610 1.112703 0.275649 -0.019535 0.000000 0.000000 0.000000 -1.473917 -0.030045 0.546640 -0.595610 0.920359 -1.179122 3.570784 -2.059607 2.025808 0.000000 0.000000 0.000000 -1.503318 0.190810 0.221156 1.396922 -11.113784 -10.724515 -2.871327 0.887838 -1.656142 20.440350 -21.691540 -65.662235 -1.004570 -20.256500 0.538542 0.000000 0.000000 0.000000 -0.981273 0.150525 0.439953 1.756265 5.904555 10.865047 -0.071261 3.457111 -2.063312 6.708722 24.461023 65.390442 0.809445 16.415096 0.611492 0.000000 0.000000 0.000000 
